<svg xmlns="http://www.w3.org/2000/svg" width="1200" height="540" viewBox="0 0 1200 540">
  <rect width="1200" height="540" fill="#ffffff"/>
  <style>
    .box { fill:#f7f7f7; stroke:#222; stroke-width:2; }
    .title { font: 20px Arial, sans-serif; fill:#111; }
    .label { font: 16px Arial, sans-serif; fill:#111; }
    .small { font: 14px Arial, sans-serif; fill:#111; }
    .arrow { stroke:#222; stroke-width:2; marker-end:url(#arrow); }
  </style>
  <defs>
    <marker id="arrow" viewBox="0 0 10 10" refX="10" refY="5" markerWidth="8" markerHeight="8" orient="auto-start-reverse">
      <path d="M 0 0 L 10 5 L 0 10 z" fill="#222"/>
    </marker>
  </defs>

  <text x="40" y="40" class="title">Music Library Lead Finder Architecture</text>

  <!-- Inputs -->
  <rect x="60" y="90" width="220" height="80" class="box"/>
  <text x="80" y="125" class="label">seeds.txt</text>
  <text x="80" y="150" class="small">Known libraries</text>

  <rect x="60" y="200" width="220" height="110" class="box"/>
  <text x="80" y="230" class="label">Discovery</text>
  <text x="80" y="255" class="small">Brave Search API</text>
  <text x="80" y="280" class="small">Serper API (backup)</text>

  <!-- Crawler -->
  <rect x="360" y="140" width="260" height="120" class="box"/>
  <text x="385" y="175" class="label">Crawler</text>
  <text x="385" y="200" class="small">Fetch + parse</text>
  <text x="385" y="225" class="small">Rate limits</text>

  <!-- Filters -->
  <rect x="690" y="140" width="260" height="120" class="box"/>
  <text x="715" y="175" class="label">Filters + Scoring</text>
  <text x="715" y="200" class="small">library_confidence</text>
  <text x="715" y="225" class="small">email validation</text>

  <!-- Outputs -->
  <rect x="990" y="90" width="180" height="90" class="box"/>
  <text x="1005" y="125" class="label">DynamoDB</text>
  <text x="1005" y="150" class="small">MusicLibraryLeads</text>

  <rect x="990" y="210" width="180" height="90" class="box"/>
  <text x="1005" y="245" class="label">DynamoDB</text>
  <text x="1005" y="270" class="small">MusicLibraryPages</text>

  <rect x="990" y="330" width="180" height="90" class="box"/>
  <text x="1005" y="365" class="label">Export</text>
  <text x="1005" y="390" class="small">JSONL</text>

  <!-- Arrows -->
  <line x1="280" y1="130" x2="360" y2="170" class="arrow"/>
  <line x1="280" y1="255" x2="360" y2="200" class="arrow"/>
  <line x1="620" y1="200" x2="690" y2="200" class="arrow"/>
  <line x1="950" y1="165" x2="990" y2="135" class="arrow"/>
  <line x1="950" y1="200" x2="990" y2="255" class="arrow"/>
  <line x1="950" y1="235" x2="990" y2="375" class="arrow"/>
</svg>